<svg viewBox="0 0 512 512" xml:space="preserve" xmlns="http://www.w3.org/2000/svg"><path d="M57.7 256.6s2.7-.6 7.1 1.6l-1.7 3.8s-3.6-1.9-6.9-1.4l1.5-4zM338.9 221.2c.7.4 1.4.6 2.2.6 1.4 0 2.8-.7 3.6-2l5-8.3c4.1-.1 7.3-3.4 7.4-7.5h.8l3.1 5.8c.2.4.3 1 .1 1.4-.2.5-.6.8-1.1.9-2.6.6-4.4 2.9-4.4 5.6v5c0 .9.7 1.6 1.6 1.6s1.6-.7 1.6-1.6v-5c0-1.2.8-2.3 2-2.6 1.4-.3 2.6-1.3 3.2-2.7.6-1.3.5-2.9-.2-4.2l-4-7.5h-3.2c-1.2-2.8-3.9-4.7-7.1-4.7-4.2 0-7.7 3.4-7.7 7.7 0 1.2.3 2.3.8 3.4l-5 8.3c-1.3 2.1-.7 4.6 1.3 5.8zM380.6 175.8c-21.5-21.2-67.2-22.9-67.2-22.9s1.7 6.4 4.7 14.6c11.4 1.1 40 4.1 62.5 8.3zM320.2 268c-.5-.6-1.2-1.1-2-1.4-.8-.4-1.7-.5-2.8-.5-.8 0-1.6.1-2.3.3-.7.2-1.4.6-2 1.1.1-.7.3-1.4.5-2.2.3-.8.6-1.5 1.1-2.2.5-.7 1-1.3 1.7-1.7.7-.5 1.5-.7 2.5-.7.4 0 .8.1 1.3.4.5.2.9.6 1.2 1h.3v-2.2h-.2c-.1 0-.3 0-.4-.1-.2 0-.5-.1-.9-.1-.3 0-.6-.1-.9-.1-1.4 0-2.6.3-3.7 1s-2 1.6-2.7 2.6c-.7 1.1-1.3 2.3-1.7 3.6-.4 1.4-.6 2.7-.6 4.1 0 1.1.1 2.1.4 3 .3 1 .7 1.8 1.2 2.6.5.7 1.2 1.3 2.1 1.7.8.4 1.8.6 3 .6 1.1 0 2-.2 2.8-.6.8-.4 1.5-.9 2-1.5s.9-1.3 1.2-2.1c.3-.8.4-1.6.4-2.4 0-.8-.1-1.6-.4-2.4-.1-.6-.5-1.2-1.1-1.8zm-.6 6.6c-.2.6-.4 1.1-.8 1.6s-.8.8-1.3 1.1c-.5.3-1.2.4-1.9.4-.8 0-1.5-.2-2.1-.5-.6-.4-1.1-.8-1.5-1.4-.4-.6-.7-1.2-1-1.9-.2-.7-.3-1.4-.3-2.2 0-.6.1-1.2.3-1.7.2-.6.4-1.1.8-1.5.4-.4.8-.8 1.4-1 .5-.3 1.2-.4 1.9-.4.8 0 1.4.2 2 .5.6.3 1.1.8 1.5 1.3.4.5.7 1.2.9 1.8.2.7.3 1.4.3 2.1.1.6 0 1.2-.2 1.8zM335.9 261.7c-.6-.8-1.4-1.4-2.2-1.9-.8-.4-1.7-.6-2.6-.6-.9 0-1.7.2-2.6.6-.8.4-1.6 1-2.2 1.9-.7.8-1.2 1.8-1.6 3-.4 1.2-.6 2.6-.6 4.2s.2 3 .6 4.3c.4 1.2.9 2.3 1.6 3.1.7.8 1.4 1.5 2.2 1.9.8.4 1.7.6 2.6.6.9 0 1.7-.2 2.6-.6.8-.4 1.6-1.1 2.2-1.9.6-.8 1.2-1.9 1.6-3.1.4-1.2.6-2.6.6-4.3 0-1.6-.2-3-.6-4.2-.4-1.2-.9-2.2-1.6-3zm-.2 11.4c-.3 1-.6 1.8-1 2.4-.4.7-.9 1.2-1.5 1.5-.6.3-1.1.5-1.7.5-.8 0-1.6-.3-2.3-.9-.7-.6-1.3-1.4-1.8-2.3-.5-.9-.9-2-1.1-3.2-.3-1.2-.4-2.3-.4-3.4 0-.9.1-1.9.3-2.7.2-.9.5-1.6.9-2.3.4-.7.9-1.2 1.4-1.6.6-.4 1.2-.6 1.9-.6s1.4.2 2.1.6c.7.4 1.3 1 1.8 1.8s.9 1.7 1.3 2.9c.3 1.1.5 2.5.5 3.9 0 1.3-.1 2.5-.4 3.4z" fill="#b8e4f1" class="fill-000000"></path><path d="m160 236.7-18.7 33.9c-1 1.8-.3 4 1.5 5 .6.3 1.1.4 1.7.4 1.3 0 2.6-.7 3.2-1.9l15.8-28.6 28.6 49.5c-1 1.5-1.6 3.3-1.7 5.3 1.5 1.1 3 2.2 4.6 3.4 3.4 2.6 6.8 4.7 10 6.2 3.5-1.6 6-5.2 6-9.3 0-2.6-.9-4.9-2.5-6.7l23.2-55.8c.2-.5.3-1 .3-1.5 15.2-.3 73.3-1.2 79.4-1.2 7.1 0 44-30.4 2.7-39.9-27-6.2-54.8 2.2-70.7 8.8a23.04 23.04 0 0 0-14.3 20.3l-.4 8.5c-.5 0-1 0-1.4.2l-.5-1.5c-1.8-4.9-6.4-8.2-11.6-8.2H190c-4.9 0-9.3-2.7-11.5-7.1l-4-7.9c-1.6-3.2-5-5.2-8.6-5-51.8 2.2-45.8 33-45.8 33H160zm133-31.4c11.2 6-4.7 26.4-4.7 26.4s12.4-19-2.1-23.2c-14.5-4.1-43.1 1.9-43.1 1.9s38.7-11.1 49.9-5.1zm-68.7 31.4L202 290.5c-.4-.1-.9-.1-1.3-.1-.9 0-1.7.1-2.6.3l-31.2-54h57.4zM166 205.4c.6 0 1.1.4 1.1 1s-.4 1.1-1 1.1c-42.5 2-42.6 25.9-42.6 26.9 0 .6-.5 1.1-1 1.1-.6 0-1-.5-1-1-.1-.4-.1-27 44.5-29.1z" fill="#b8e4f1" class="fill-000000"></path><path d="M392.1 300.3c1.1 2.3 3.8 3.3 6.2 2.3 2.4-1.1 3.5-3.9 2.3-6.3l-22.7-47.8c.3-.2.5-.4.8-.6 11-8.2 17.2-17.2 18.9-27h3.9c1.9-11.3-2.3-22.5-2.3-22.5h-4.5c-2.2-5.4-5.3-11.1-9.4-17-.7-1-1.5-2-2.3-3-22.1-4.3-51.6-7.4-64.2-8.7.8 2.2 1.8 4.5 2.8 6.8 5.2 11.8 24.4 12.5 37.1 12.9s34.2 5 21.4 28.2c-12.9 23.2-98.2 24.6-98.2 24.6-3.1 11-8.7 24.9-33.8 41.6s-11.1 58.8 28.2 60.6c39.3 1.7 42.8-3.8 53.6-20.5 9.5-14.8 21.2-48.5 40.6-68.7l21.6 45.1zM270.8 271c-.4.4-11 10.2-17.7 14.3-6.4 3.9-20.5 18.3-9 37.9.3.5.1 1.1-.4 1.4-.2.1-.3.1-.5.1-.4 0-.7-.2-.9-.5-6.6-11.2-4.9-20.6-2.3-26.5 3-6.9 8.4-11.9 12-14.2 6.6-4 17.3-14 17.4-14.1.4-.4 1.1-.4 1.5.1.3.5.3 1.1-.1 1.5zm52 21.1c-12.4 0-22.4-10-22.4-22.4s10-22.4 22.4-22.4c12.4 0 22.4 10 22.4 22.4s-10 22.4-22.4 22.4zM152.7 272.6c3 2.8 5.5 6.1 7.5 9.7 7 3 14.9 7.2 24.4 13.7-1.3-16.7-9.6-31.5-22-41.3l-9.9 17.9zM126.2 262.1c5 0 9.7 1 14.1 2.7l9.7-17.6c-7.3-3.2-15.3-5.1-23.8-5.1-15.8 0-30.1 6.3-40.6 16.4 6.9 2.4 15.1 5.1 23.1 7.7 5.3-2.6 11.2-4.1 17.5-4.1zM163.4 310.8c-4.5 16.4-19.4 28.4-37.2 28.4-21.3 0-38.5-17.3-38.5-38.5 0-7.4 2.1-14.3 5.7-20.2-6.9-2.6-13.5-5.1-18.9-7.2-4.3 8.2-6.8 17.5-6.8 27.4 0 32.3 26.2 58.5 58.5 58.5 23.6 0 44-14 53.2-34.2-2.7-2.4-5.1-4.5-7.3-6.4-3.5-3.3-6.3-5.8-8.7-7.8z" fill="#b8e4f1" class="fill-000000"></path><path d="M397.3 242.1c-2.4 0-4.8.2-7.2.5-2.2 2.4-4.8 4.7-7.7 7l6.4 13.5c2.7-.6 5.5-.9 8.4-.9 21.3 0 38.5 17.3 38.5 38.5 0 21.3-17.3 38.5-38.5 38.5s-38.5-17.3-38.5-38.5c0-12.4 5.9-23.4 15-30.5l-4.1-8.6c-10.8 12.7-19 29.7-26 44.1-1.2 2.5-2.4 4.9-3.6 7.2 5.6 26.4 29.1 46.3 57.2 46.3 32.3 0 58.5-26.2 58.5-58.5.1-32.4-26.1-58.6-58.4-58.6z" fill="#b8e4f1" class="fill-000000"></path><path d="M399.8 305.9c-1.1.5-2.2.7-3.4.7-3.1 0-6.2-1.8-7.6-4.8l-10.2-21.5c-5.5 5-8.9 12.2-8.9 20.2 0 15.2 12.3 27.6 27.6 27.6 15.2 0 27.6-12.3 27.6-27.6s-12.3-27.6-27.6-27.6c-1.2 0-2.4.1-3.6.2l10.2 21.4c1 2 1.1 4.3.3 6.5-.7 2.3-2.3 4-4.4 4.9zm-22.6 1c-1 .6-2.4.2-3-.8-.6-1-.2-2.4.8-3 1-.6 2.4-.2 3 .8.5 1 .2 2.4-.8 3zm-.5-10.9c-1.2 0-2.2-1-2.2-2.2 0-1.2 1-2.2 2.2-2.2 1.2 0 2.2 1 2.2 2.2 0 1.2-1 2.2-2.2 2.2zm6.3 20.1c-.6 1-1.9 1.4-3 .8s-1.4-1.9-.8-3c.6-1 1.9-1.4 3-.8 1 .7 1.4 2 .8 3zm7.5 7.3c-1.2 0-2.2-1-2.2-2.2 0-1.2 1-2.2 2.2-2.2s2.2 1 2.2 2.2c-.1 1.2-1 2.2-2.2 2.2zm12.3.4c-1 .6-2.4.2-3-.8-.6-1-.2-2.4.8-3 1-.6 2.4-.2 3 .8.6 1 .2 2.4-.8 3zm14.7-29.4c1-.6 2.4-.2 3 .8.6 1 .2 2.4-.8 3-1 .6-2.4.2-3-.8-.6-1.1-.3-2.4.8-3zm.4 10.9c1.2 0 2.2 1 2.2 2.2 0 1.2-1 2.2-2.2 2.2-1.2 0-2.2-1-2.2-2.2 0-1.2 1-2.2 2.2-2.2zm-6.3-20.2c.6-1 1.9-1.4 3-.8 1 .6 1.4 1.9.8 3-.6 1-1.9 1.4-3 .8-1-.6-1.4-1.9-.8-3zm-1.8 30.7c.6-1 1.9-1.4 3-.8 1 .6 1.4 1.9.8 3-.6 1-1.9 1.4-3 .8-1-.7-1.4-2-.8-3zm-5.6-33.6c-1.2 0-2.2-1-2.2-2.2s1-2.2 2.2-2.2c1.2 0 2.2 1 2.2 2.2s-1 2.2-2.2 2.2zM126.2 328.2c14.3 0 26.1-10.9 27.4-24.8-3.5-2.1-7-3.3-13.3-5.5-1.2-.4-2.5-.9-3.9-1.4-8.2-2.9-20.3-7.4-32.6-12-3.3 4.5-5.3 10.1-5.3 16.2.2 15.2 12.5 27.5 27.7 27.5zm22.3-25.2c1.2 0 2.2 1 2.2 2.2s-1 2.2-2.2 2.2c-1.2 0-2.2-1-2.2-2.2s1-2.2 2.2-2.2zm-7.1 11.7c.6-1 1.9-1.4 2.9-.8 1 .6 1.4 1.9.8 2.9-.6 1-1.9 1.4-2.9.8-1-.6-1.4-1.9-.8-2.9zm-9.1 5.7c1-.6 2.3-.2 2.9.8.6 1 .2 2.3-.8 2.9-1 .6-2.3.2-2.9-.8-.6-1-.2-2.3.8-2.9zm-10.7.4c1.2 0 2.2 1 2.2 2.2s-1 2.2-2.2 2.2c-1.2 0-2.2-1-2.2-2.2s1-2.2 2.2-2.2zm-12.4-4.1c.6-1 1.9-1.4 2.9-.8 1 .6 1.4 1.9.8 2.9-.6 1-1.9 1.4-2.9.8-1.1-.6-1.4-1.9-.8-2.9zm-7.6-20.6c0-1.2 1-2.2 2.2-2.2 1.2 0 2.2 1 2.2 2.2 0 1.2-1 2.2-2.2 2.2-1.2-.1-2.2-1-2.2-2.2zm4 13.6c-1 .6-2.3.2-2.9-.8-.6-1-.2-2.3.8-2.9 1-.6 2.3-.2 2.9.8.6 1 .2 2.3-.8 2.9zM245.6 279.8c-2.2-1-4.8-1.5-7.4-1.5-10.9 0-19.7 8.8-19.7 19.7 0 8.8 5.8 16.2 13.7 18.8-4-14.7 1.1-28.9 13.4-37z" fill="#b8e4f1" class="fill-000000"></path><path d="M232.9 319c-7.5 1.3-23.4 1.8-40.8-11.5-24-18.5-37.7-23-51.9-26.6-19-4.8-74.7-24.2-74.7-24.2l-3.1 7s53 20.5 75.7 28.5c22.6 8 15.8 4.4 52.3 36.1 23.6 20.6 51.5 20.1 68.2 17.2-14-5.6-22.3-16.6-25.7-26.5zm-24.4 2.9h-.2c-4.6-.9-21.2-10.4-27.3-16.1-6.2-5.8-24.2-15.9-27.4-17.3-3.2-1.4-29.8-9.2-30.1-9.2-.6-.2-.9-.7-.7-1.3.2-.6.7-.9 1.3-.7 1.1.3 27 7.9 30.3 9.3 3.3 1.4 21.5 11.6 28 17.7 6.2 5.8 22.4 14.8 26.3 15.6.6.1.9.7.8 1.2-.1.4-.5.8-1 .8zM246.4 264.6h3.6c0 3.8 3 6.8 6.8 6.9 2.7-2.3 5-4.4 7-6.6v-.3h.3c3.7-4 6.4-7.8 8.4-11.3h-9.3v-3.5h1.8v-3.5h-16.1v3.5h1.8v3.5h-4.3v-3.5l-13.9 2.6v11.5l13.9 2.6v-1.9z" fill="#b8e4f1" class="fill-000000"></path></svg>